HIERARCHY
ROOT Hips
{
  OFFSET -1.56614 0.00 -1.85809
  CHANNELS 6 Xposition Yposition Zposition Zrotation Xrotation Yrotation
  JOINT LHipJoint
  {
    OFFSET 0 0 0
    CHANNELS 3 Zrotation Xrotation Yrotation
    JOINT LeftUpLeg
    {
      OFFSET 1.8 -1.4 0.085
      CHANNELS 3 Zrotation Xrotation Yrotation
      JOINT LeftLeg
      {
        OFFSET 2.215 -6 0
        CHANNELS 3 Zrotation Xrotation Yrotation
        JOINT LeftFoot
        {
          OFFSET 2.5 -6.9 0
          CHANNELS 3 Zrotation Xrotation Yrotation
          JOINT LeftToeBase
          {
            OFFSET 0.2 -0.5 1.95
            CHANNELS 3 Zrotation Xrotation Yrotation
            End Site
            {
              OFFSET 0 0 1
            }
          }
        }
      }
    }
  }
  JOINT RHipJoint
  {
    OFFSET 0 0 0
    CHANNELS 3 Zrotation Xrotation Yrotation
    JOINT RightUpLeg
    {
      OFFSET -1.8 -1.4 0.085
      CHANNELS 3 Zrotation Xrotation Yrotation
      JOINT RightLeg
      {
        OFFSET -2.215 -6 0
        CHANNELS 3 Zrotation Xrotation Yrotation
        JOINT RightFoot
        {
          OFFSET -2.5 -6.9 0
          CHANNELS 3 Zrotation Xrotation Yrotation
          JOINT RightToeBase
          {
            OFFSET -0.2 -0.5 1.95
            CHANNELS 3 Zrotation Xrotation Yrotation
            End Site
            {
              OFFSET 0 0 1
            }
          }
        }
      }
    }
  }
  JOINT LowerBack
  {
    OFFSET 0 0 0
    CHANNELS 3 Zrotation Xrotation Yrotation
    JOINT Spine
    {
      OFFSET -0.087 1.94 -0.2889
      CHANNELS 3 Zrotation Xrotation Yrotation
      JOINT Spine1
      {
        OFFSET 0 1.95 0.06
        CHANNELS 3 Zrotation Xrotation Yrotation
        JOINT Neck
        {
          OFFSET 0 0 0
          CHANNELS 3 Zrotation Xrotation Yrotation
          JOINT Neck1
          {
            OFFSET 0 1.6 0.34
            CHANNELS 3 Zrotation Xrotation Yrotation
            JOINT Head
            {
              OFFSET 0 1.667 -0.24
              CHANNELS 3 Zrotation Xrotation Yrotation
              End Site
              {
                OFFSET 0 1.686 -0.12
              }
            }
          }
        }
        JOINT LeftShoulder
        {
          OFFSET 0 0 0
          CHANNELS 3 Zrotation Xrotation Yrotation
          JOINT LeftArm
          {
            OFFSET 2.7 1.55 -0.73
            CHANNELS 3 Zrotation Xrotation Yrotation
            JOINT LeftForeArm
            {
              OFFSET 5.45 0 0
              CHANNELS 3 Zrotation Xrotation Yrotation
              JOINT LeftHand
              {
                OFFSET 3.45 0 0
                CHANNELS 3 Zrotation Xrotation Yrotation
                JOINT LeftFingerBase
                {
                  OFFSET 0 0 0
                  CHANNELS 3 Zrotation Xrotation Yrotation
                  JOINT LeftHandIndex1
                  {
                    OFFSET 0.75 0 0
                    CHANNELS 3 Zrotation Xrotation Yrotation
                    End Site
                    {
                      OFFSET 0.6 0 0
                    }
                  }
                }
                JOINT LThumb
                {
                  OFFSET 0 0 0
                  CHANNELS 3 Zrotation Xrotation Yrotation
                  End Site
                  {
                    OFFSET 0.59 0 0.59
                  }
                }
              }
            }
          }
        }
        JOINT RightShoulder
        {
          OFFSET 0 0 0
          CHANNELS 3 Zrotation Xrotation Yrotation
          JOINT RightArm
          {
            OFFSET -2.7 1.55 -0.73
            CHANNELS 3 Zrotation Xrotation Yrotation
            JOINT RightForeArm
            {
              OFFSET -5.45 0 0
              CHANNELS 3 Zrotation Xrotation Yrotation
              JOINT RightHand
              {
                OFFSET -3.45 0 0
                CHANNELS 3 Zrotation Xrotation Yrotation
                JOINT RightFingerBase
                {
                  OFFSET 0 0 0
                  CHANNELS 3 Zrotation Xrotation Yrotation
                  JOINT RightHandIndex1
                  {
                    OFFSET -0.75 0 0
                    CHANNELS 3 Zrotation Xrotation Yrotation
                    End Site
                    {
                      OFFSET -0.6 0 0
                    }
                  }
                }
                JOINT RThumb
                {
                  OFFSET 0 0 0
                  CHANNELS 3 Zrotation Xrotation Yrotation
                  End Site
                  {
                    OFFSET -0.59 0 0.59
                  }
                }
              }
            }
          }
        }
      }
    }
  }
}
MOTION
Frames:	9
Frame Time:	0.00833333
19.664 17.2564 5.88749 -4.31177 4.36684 -27.0152 3.97569e-016 7.95139e-016 -0 -15.6636 -34.5827 -7.81997 -13.1705 45.3813 9.39901 -19.2573 -28.4003 12.4908 -1.68967e-015 -3.97569e-015 1.59028e-015 3.97569e-016 7.95139e-016 -0 8.001 -16.5106 -1.59269 -0.478029 4.43821 -11.2961 29.5908 -6.12174 -5.66283 -1.76556e-031 -3.18055e-015 -3.18055e-015 3.97569e-016 7.95139e-016 -0 -7.97421 38.5173 3.58535 2.68361 20.9669 -0.181954 -4.09344 -14.6702 4.52197 -6.14423 22.1832 6.10135 -2.45455 4.48942 11.4718 4.0067 -0.370754 10.9958 -98.7308 17.8995 -64.3714 62.8883 31.6403 -63.3412 -35.129 3.87104 -13.9451 -8.49021e-007 2.87845e-007 -9.86655e-007 -1.13558e-007 1.71158e-007 1.02801e-006 1.59028e-015 3.97569e-015 7.7526e-015 8.82345 7.73329 41.6132 60.8078 -12.1216 55.9305 -8.66013 59.3923 9.40145 -7.83748 0.338793 0.0495614 5.10421e-006 -1.181e-006 1.9673e-006 1.59028e-015 -6.36111e-015 -4.77083e-015 -3.18055e-015 3.18055e-015 7.95139e-016 
19.688 17.2499 5.91319 -4.44044 4.46361 -27.4515 -1.19271e-015 0 3.18055e-015 -15.4644 -34.7184 -7.64076 -13.4242 45.6149 9.76767 -19.008 -28.6537 12.4693 -2.28602e-015 -7.95139e-016 -0 -1.19271e-015 0 3.18055e-015 8.05581 -16.5659 -1.50645 -0.422393 4.43901 -11.118 29.9029 -5.89875 -5.68062 -9.54166e-015 3.18055e-015 -3.18055e-015 -1.19271e-015 0 3.18055e-015 -8.09973 38.4961 3.81169 2.70374 20.8567 0.00862679 -4.16554 -14.3941 4.52586 -6.233 22.4568 6.13845 -2.70792 4.27671 11.4276 3.858 -0.351468 10.4294 -94.6751 19.0271 -63.9188 61.9114 31.9647 -62.6768 -43.4532 7.04781 -12.614 -8.49021e-007 2.87845e-007 -9.86655e-007 -1.13558e-007 1.71158e-007 1.02801e-006 -1.98785e-015 -4.77083e-015 -3.23025e-015 9.98897 8.05104 40.7266 61.0581 -12.6078 54.4605 -4.58743 48.7832 6.55311 -6.64565 1.09947 11.5935 5.10421e-006 -1.181e-006 1.9673e-006 7.95139e-015 -6.36111e-015 -4.77083e-015 1.59028e-015 0 -4.77083e-015 
19.7102 17.2456 5.94119 -4.56902 4.54515 -27.8779 -7.95139e-016 7.95139e-016 -0 -15.2401 -34.7833 -7.41869 -13.6625 45.8167 9.98674 -18.7687 -29.0021 12.5439 9.34288e-015 -1.59028e-015 -7.95139e-016 -7.95139e-016 7.95139e-016 -0 8.0977 -16.5857 -1.44542 -0.352241 4.39256 -11.0466 30.1867 -5.66191 -5.66256 -9.54166e-015 3.18055e-015 -0 -7.95139e-016 7.95139e-016 -0 -8.23152 38.4701 4.03614 2.73573 20.7564 0.190944 -4.23469 -14.1249 4.5332 -6.31999 22.7233 6.1783 -2.9561 4.07092 11.3963 3.69604 -0.331916 9.87139 -92.5864 19.564 -63.2664 61.5528 32.3309 -62.4833 -46.6161 8.35916 -12.3905 -8.49021e-007 2.87845e-007 -9.86655e-007 -1.13558e-007 1.71158e-007 1.02801e-006 0 0 -9.93923e-016 11.1464 8.30254 39.6452 61.2896 -13.0342 52.9574 -2.73285 42.0279 5.21465 -5.51773 1.50377 17.9545 5.10421e-006 -1.181e-006 1.9673e-006 4.77083e-015 -3.18055e-015 -1.59028e-015 -7.94503e-031 9.54166e-015 4.77083e-015 
19.7312 17.2432 5.97267 -4.70363 4.5958 -28.3005 7.95139e-016 0 -6.36111e-015 -14.985 -34.7497 -7.13737 -13.8855 45.9991 10.004 -18.5571 -29.5051 12.7477 2.88238e-015 0 -1.59028e-015 7.95139e-016 0 -6.36111e-015 8.12025 -16.562 -1.41985 -0.27577 4.30787 -11.0955 30.4917 -5.40086 -5.58429 3.18055e-015 -6.36111e-015 -9.54166e-015 7.95139e-016 0 -6.36111e-015 -8.36799 38.4585 4.26 2.78575 20.6691 0.362657 -4.32396 -13.8727 4.55029 -6.4321 22.9718 6.23416 -3.17516 3.88116 11.3737 3.52194 -0.312467 9.32975 -91.6074 19.8031 -62.476 61.7598 32.9393 -62.6963 -46.1901 8.5241 -12.8037 -8.49021e-007 2.87845e-007 -9.86655e-007 -1.13558e-007 1.71158e-007 1.02801e-006 -1.59028e-015 -4.77083e-015 3.18055e-015 12.299 8.48157 38.35 61.5373 -13.3825 51.449 -2.10747 39.0006 4.43819 -4.17131 1.66081 18.9312 5.10421e-006 -1.181e-006 1.9673e-006 1.59028e-015 -3.18055e-015 -0 3.18055e-015 -3.18055e-015 -3.18055e-015 
19.751 17.2426 6.00635 -4.84202 4.63241 -28.7118 1.59028e-015 0 -6.36111e-015 -14.7047 -34.6563 -6.81437 -14.0979 46.1564 9.89833 -18.3455 -30.071 13.0176 7.45443e-015 7.95139e-016 -7.95139e-016 1.59028e-015 0 -6.36111e-015 8.12647 -16.5112 -1.41893 -0.188547 4.19288 -11.2171 30.7907 -5.10969 -5.49832 6.36111e-015 3.18055e-015 -0 1.59028e-015 0 -6.36111e-015 -8.50723 38.4482 4.48069 2.85622 20.587 0.522393 -4.42442 -13.6317 4.57293 -6.55833 23.2084 6.29913 -3.37696 3.70043 11.3572 3.33812 -0.29316 8.81057 -90.6159 20.1297 -61.6884 62.1296 33.7632 -63.0641 -44.9894 8.57749 -13.2327 -8.49021e-007 2.87845e-007 -9.86655e-007 -1.13558e-007 1.71158e-007 1.02801e-006 1.59028e-015 3.18055e-015 3.57812e-015 13.4461 8.59649 36.8926 61.7791 -13.6813 49.9124 -2.0456 37.9119 3.95244 -2.81439 1.70045 16.928 5.10421e-006 -1.181e-006 1.9673e-006 6.36111e-015 3.18055e-015 1.59028e-015 -1.59028e-015 -3.18055e-015 -3.18055e-015 
19.7692 17.244 6.04012 -4.97632 4.68288 -29.1001 -3.97569e-016 7.95139e-016 -0 -14.4091 -34.5592 -6.47893 -14.3018 46.2732 9.77901 -18.0968 -30.5731 13.2732 4.96962e-016 1.59028e-015 7.95139e-016 -3.97569e-016 7.95139e-016 -0 8.12479 -16.4541 -1.42461 -0.0793871 4.04482 -11.363 31.0156 -4.79414 -5.46775 3.18055e-015 0 3.18055e-015 -3.97569e-016 7.95139e-016 -0 -8.64895 38.4108 4.69477 2.94291 20.5012 0.671439 -4.50683 -13.3877 4.59183 -6.66409 23.4488 6.35502 -3.59356 3.51461 11.3492 3.14531 -0.273677 8.31069 -89.6008 20.526 -60.9262 62.4133 34.5924 -63.4636 -43.4913 8.57366 -13.6551 -8.49021e-007 2.87845e-007 -9.86655e-007 -1.13558e-007 1.71158e-007 1.02801e-006 -1.59028e-015 -6.36111e-015 -4.37326e-015 14.5803 8.65436 35.3299 61.9665 -13.9635 48.3021 -2.21711 37.5844 3.70494 -1.71337 1.65234 13.9416 5.10421e-006 -1.181e-006 1.9673e-006 9.54166e-015 0 -0 0 3.18055e-015 -0 
19.7852 17.2478 6.07194 -5.09825 4.77448 -29.4544 -3.97569e-016 0 -0 -14.1039 -34.5136 -6.15681 -14.5026 46.3333 9.75391 -17.775 -30.8868 13.4321 -3.77691e-015 -7.95139e-016 -7.95139e-016 -3.97569e-016 0 -0 8.12338 -16.4114 -1.419 0.0638384 3.86119 -11.4871 31.0987 -4.45703 -5.55292 6.36111e-015 0 -0 -3.97569e-016 0 -0 -8.7924 38.3183 4.8983 3.04215 20.4029 0.810606 -4.5437 -13.1268 4.59851 -6.71685 23.7078 6.38493 -3.85457 3.30936 11.3523 2.9447 -0.253771 7.82797 -88.5511 20.9756 -60.2108 62.357 35.2259 -63.75 -42.1544 8.5657 -14.0519 -8.49021e-007 2.87845e-007 -9.86655e-007 -1.13558e-007 1.71158e-007 1.02801e-006 3.18055e-015 -3.18055e-015 -7.95139e-016 15.6968 8.66385 33.7161 62.0484 -14.2613 46.5723 -2.37231 36.8964 3.70029 -1.13845 1.54661 11.8571 5.10421e-006 -1.181e-006 1.9673e-006 3.97569e-015 -6.36111e-015 -7.95139e-016 3.97569e-016 -6.36111e-015 7.95139e-016 
19.7984 17.2548 6.10184 -5.20639 4.9143 -29.7797 1.98785e-015 0 -0 -13.7606 -34.5238 -5.8224 -14.7282 46.3173 9.83328 -17.2951 -30.9685 13.485 4.47266e-015 -7.95139e-016 2.38542e-015 1.98785e-015 0 -0 8.12242 -16.3998 -1.39636 0.255702 3.64569 -11.6064 30.9998 -4.05411 -5.74086 6.36111e-015 -9.54166e-015 9.54166e-015 1.98785e-015 0 -0 -8.93751 38.1637 5.08674 3.15995 20.2905 0.933775 -4.55097 -12.8477 4.6004 -6.73661 23.9865 6.40169 -4.13641 3.07458 11.3702 2.74332 -0.234482 7.37651 -87.4819 21.5 -59.5226 61.9998 35.6568 -63.9444 -40.9238 8.56342 -14.4578 -8.49021e-007 2.87845e-007 -9.86655e-007 -1.13558e-007 1.71158e-007 1.02801e-006 -1.59028e-015 3.18055e-015 -1.03368e-014 16.8206 8.61883 32.03 62.0099 -14.5585 44.7058 -2.60078 36.236 4.02 -1.22862 1.30564 9.84822 5.10421e-006 -1.181e-006 1.9673e-006 4.57205e-015 0 -3.97569e-015 -1.39149e-015 3.18055e-015 -1.98785e-016 
19.8097 17.2642 6.1309 -5.3054 5.08091 -30.0779 -1.59028e-015 1.59028e-015 -6.36111e-015 -13.3998 -34.5565 -5.48373 -14.9512 46.2511 9.9502 -16.7576 -30.9251 13.4805 -3.27995e-015 -7.95139e-016 7.95139e-016 -1.59028e-015 1.59028e-015 -6.36111e-015 8.11737 -16.3933 -1.37141 0.476161 3.39648 -11.7306 30.7956 -3.62366 -6.01055 -9.54166e-015 -3.18055e-015 -3.18055e-015 -1.59028e-015 1.59028e-015 -6.36111e-015 -9.08343 37.9686 5.2655 3.29293 20.1702 1.04596 -4.52898 -12.559 4.59552 -6.72248 24.2759 6.40279 -4.44385 2.82703 11.3982 2.53421 -0.215039 6.94489 -86.3898 22.0992 -58.8726 61.4316 36.0011 -64.0843 -39.6031 8.52988 -14.8521 -8.49021e-007 2.87845e-007 -9.86655e-007 -1.13558e-007 1.71158e-007 1.02801e-006 1.59028e-015 -3.18055e-015 3.18055e-015 17.9202 8.51048 30.2631 61.8912 -14.8431 42.7407 -2.93275 35.8596 4.5735 -1.74075 0.978136 7.63927 5.10421e-006 -1.181e-006 1.9673e-006 5.56597e-015 3.18055e-015 -3.18055e-015 -1.09332e-015 0 -3.97569e-016 
